<?xml version="1.0" encoding="UTF-8" standalone="no"?>
<svg
   xmlns:dc="http://purl.org/dc/elements/1.1/"
   xmlns:cc="http://creativecommons.org/ns#"
   xmlns:rdf="http://www.w3.org/1999/02/22-rdf-syntax-ns#"
   xmlns:svg="http://www.w3.org/2000/svg"
   xmlns="http://www.w3.org/2000/svg"
   xmlns:sodipodi="http://sodipodi.sourceforge.net/DTD/sodipodi-0.dtd"
   xmlns:inkscape="http://www.inkscape.org/namespaces/inkscape"
   width="576"
   height="288"
   viewBox="0 0 576 288"
   version="1.1"
   id="svg20"
   sodipodi:docname="background.svg"
   inkscape:version="0.92.2 2405546, 2018-03-11">
  <metadata
     id="metadata26">
    <rdf:RDF>
      <cc:Work
         rdf:about="">
        <dc:format>image/svg+xml</dc:format>
        <dc:type
           rdf:resource="http://purl.org/dc/dcmitype/StillImage" />
        <dc:title />
      </cc:Work>
    </rdf:RDF>
  </metadata>
  <defs
     id="defs24" />
  <sodipodi:namedview
     pagecolor="#ffffff"
     bordercolor="#666666"
     borderopacity="1"
     objecttolerance="10"
     gridtolerance="10"
     guidetolerance="10"
     inkscape:pageopacity="0"
     inkscape:pageshadow="2"
     inkscape:window-width="1850"
     inkscape:window-height="1016"
     id="namedview22"
     showgrid="false"
     inkscape:zoom="1"
     inkscape:cx="221.47202"
     inkscape:cy="224"
     inkscape:window-x="70"
     inkscape:window-y="27"
     inkscape:window-maximized="1"
     inkscape:current-layer="svg20" />
  <rect
     width="576"
     height="288"
     id="rect2"
     x="0"
     y="0"
     style="fill:#555555;stroke-width:0.36000001;fill-opacity:1" />
  <path
     d="m 396.9,264.528 c 0.9,-0.432 8.928,-3.096 9.216,-2.7 0.18,0.252 -1.404,8.568 -1.656,8.82 -0.072,0.108 -5.76,-4.428 -7.56,-6.12 z M 441.468,82.476 c 0,-0.036 -1.764,-3.384 -2.52,-5.112 -0.036,-0.108 -0.108,-0.396 -0.144,-0.576 -0.036,-0.144 -0.108,-0.252 -0.216,-0.324 -0.108,-0.072 -0.216,-0.036 -0.288,0.036 l -4.716,4.428 c 0,0 0,0 0,0 -0.072,0.072 -0.108,0.18 -0.144,0.288 0,0.108 0,0.252 0.072,0.36 0.036,0.036 0.504,0.9 0.756,1.296 0.864,1.332 2.34,4.356 2.34,4.392 0.072,0.108 0.144,0.18 0.252,0.216 0.108,0 0.18,-0.036 0.252,-0.108 0,0 0.648,-0.9 0.972,-1.296 0.54,-0.576 1.08,-1.152 1.656,-1.692 0.432,-0.432 0.576,-0.504 0.756,-0.576 0.18,-0.108 0.396,-0.18 0.9,-0.684 0.144,-0.18 0.18,-0.468 0.072,-0.648 z M 11.88,277.308 c 0,0 0,0 0,0 0,-0.252 -0.18,-0.432 -0.432,-0.432 -0.036,0 -0.108,0 -0.144,0.036 -0.576,0.072 -5.148,0.036 -7.992,0 -0.108,0 -0.216,0.036 -0.324,0.144 -0.072,0.072 -0.144,0.18 -0.144,0.324 0,0.072 0,1.764 0.036,2.124 l 0.144,4.896 c 0,0.108 0.072,0.216 0.144,0.324 0.072,0.072 0.18,0.108 0.288,0.108 0,0 0.036,0 0.036,0 2.628,-0.252 5.292,-0.324 7.92,-0.216 0.108,0 0.252,-0.036 0.324,-0.108 0.072,-0.072 0.144,-0.216 0.144,-0.324 -0.036,-2.196 -0.036,-4.752 0,-6.876 z"
     id="path4"
     inkscape:connector-curvature="0"
     style="fill:#ffc107;stroke-width:0.36000001" />
  <path
     d="m 61.596,138.024 c 0.468,-0.9 5.148,-7.92 5.616,-7.776 0.288,0.108 4.14,7.632 4.14,7.956 -0.036,0.108 -7.308,0.036 -9.756,-0.18 z m 153.108,118.224 c -0.036,-0.036 -2.412,-2.952 -3.492,-4.5 -0.072,-0.108 -0.18,-0.36 -0.252,-0.54 -0.072,-0.144 -0.144,-0.252 -0.252,-0.288 -0.108,-0.036 -0.216,0 -0.288,0.108 l -3.78,5.292 c 0,0 0,0 0,0 -0.072,0.072 -0.072,0.18 -0.072,0.324 0,0.108 0.072,0.252 0.144,0.324 0.036,0.036 0.648,0.792 1.008,1.116 1.116,1.116 3.168,3.78 3.204,3.816 0.072,0.108 0.18,0.144 0.288,0.144 0.108,0 0.18,-0.072 0.216,-0.18 0,0 0.432,-1.008 0.72,-1.476 0.396,-0.684 0.828,-1.332 1.26,-1.98 0.324,-0.504 0.468,-0.612 0.612,-0.72 0.18,-0.144 0.36,-0.252 0.756,-0.864 0.108,-0.108 0.072,-0.396 -0.072,-0.576 z M 261.9,64.764 c 0,0 0,0 0,0 0.216,0.072 0.468,-0.072 0.504,-0.288 0,-0.036 0,-0.072 0,-0.144 0.072,-0.504 1.008,-4.536 1.62,-7.02 0.036,-0.108 0,-0.216 -0.072,-0.288 -0.072,-0.108 -0.18,-0.144 -0.288,-0.18 -0.072,0 -1.692,-0.396 -2.052,-0.468 l -4.824,-0.972 c -0.108,-0.036 -0.252,0 -0.324,0.072 -0.072,0.072 -0.144,0.144 -0.18,0.216 0,0 0,0.036 0,0.036 -0.288,2.34 -0.792,4.716 -1.404,6.984 -0.036,0.108 0,0.216 0.072,0.324 0.072,0.108 0.18,0.144 0.288,0.18 2.088,0.468 4.572,1.044 6.66,1.548 z m 0.36,-0.648 c -0.036,-0.036 -0.072,-0.072 -0.144,-0.072 0.072,0 0.108,0.036 0.144,0.072 z"
     id="path6"
     inkscape:connector-curvature="0"
     style="fill:#17a2b8;stroke-width:0.36000001" />
  <g
     id="g18"
     style="fill:#ffffff"
     transform="scale(0.36)">
    <path
       d="m 699.6,472.7 c -1.5,0 -2.8,-0.8 -3.5,-2.3 -0.8,-1.9 0,-4.2 1.9,-5 3.7,-1.6 6.8,-4.7 8.4,-8.5 1.6,-3.8 1.7,-8.1 0.2,-11.9 -0.3,-0.9 -0.8,-1.8 -1.2,-2.8 -0.8,-1.7 -1.8,-3.7 -2.3,-5.9 -0.9,-4.1 -0.2,-8.6 2,-12.8 1.7,-3.1 4.1,-6.1 7.6,-9.1 1.6,-1.4 4,-1.2 5.3,0.4 1.4,1.6 1.2,4 -0.4,5.3 -2.8,2.5 -4.7,4.7 -5.9,7 -1.4,2.6 -1.9,5.3 -1.3,7.6 0.3,1.4 1,2.8 1.7,4.3 0.5,1.1 1,2.2 1.5,3.3 2.1,5.6 2,12 -0.3,17.6 -2.3,5.5 -6.8,10.1 -12.3,12.5 -0.4,0.2 -0.9,0.3 -1.4,0.3 z m 40.8,-51.3 c 1.5,-0.2 3,0.5 3.8,1.9 1.1,1.8 0.4,4.2 -1.4,5.3 -3.7,2.1 -6.4,5.6 -7.6,9.5 -1.2,4 -0.8,8.4 1.1,12.1 0.4,0.9 1,1.7 1.6,2.7 1,1.7 2.2,3.5 3,5.7 1.4,4 1.2,8.7 -0.6,13.2 -1.4,3.4 -3.5,6.6 -6.8,10.1 -1.5,1.6 -3.9,1.7 -5.5,0.2 -1.6,-1.4 -1.7,-3.9 -0.2,-5.4 2.6,-2.8 4.3,-5.3 5.3,-7.7 1.1,-2.8 1.3,-5.6 0.5,-7.9 -0.5,-1.3 -1.3,-2.7 -2.2,-4.1 -0.6,-1 -1.3,-2.1 -1.9,-3.2 -2.8,-5.4 -3.4,-11.9 -1.7,-17.8 1.8,-5.9 5.8,-11 11.2,-14 0.4,-0.4 0.9,-0.6 1.4,-0.6 z M 261.3,590.9 c 5.7,6.8 9,15.7 9.4,22.4 0.5,7.3 -2.4,16.4 -10.2,20.4 -3,1.5 -6.7,2.2 -11.2,2.2 -7.9,-0.1 -12.9,-2.9 -15.4,-8.4 -2.1,-4.7 -2.3,-11.4 1.8,-15.9 3.2,-3.5 7.8,-4.1 11.2,-1.6 1.2,0.9 1.5,2.7 0.6,3.9 -0.9,1.2 -2.7,1.5 -3.9,0.6 -1.8,-1.3 -3.6,0.6 -3.8,0.8 -2.4,2.6 -2.1,7 -0.8,9.9 1.5,3.4 4.7,5 10.4,5.1 3.6,0 6.4,-0.5 8.6,-1.6 4.7,-2.4 7.7,-8.6 7.2,-15 -0.5,-7.3 -5.3,-18.2 -13,-23.9 -4.2,-3.1 -8.5,-4.1 -12.9,-3.1 -3.1,0.7 -6.2,2.4 -9.7,5 -6.6,5.1 -11.7,11.8 -14.2,19 -2.7,7.7 -2.1,15.8 1.9,23.9 0.7,1.4 0.1,3.1 -1.3,3.7 -1.4,0.7 -3.1,0.1 -3.7,-1.3 -4.6,-9.4 -5.4,-19.2 -2.2,-28.2 2.9,-8.2 8.6,-15.9 16.1,-21.6 4.1,-3.1 8,-5.1 11.8,-6 6,-1.4 12,0 17.5,4 2.1,1.7 4.1,3.6 5.8,5.7 z"
       id="path8"
       inkscape:connector-curvature="0" />
    <circle
       cx="1013.7"
       cy="153.89999"
       r="7.0999999"
       id="circle10" />
    <circle
       cx="1024.3"
       cy="132.10001"
       r="7.0999999"
       id="circle12" />
    <circle
       cx="1037.3"
       cy="148.89999"
       r="7.0999999"
       id="circle14" />
    <path
       d="m 1508.7,297.2 c -4.8,-5.4 -9.7,-10.8 -14.8,-16.2 5.6,-5.6 11.1,-11.5 15.6,-18.2 1.2,-1.7 0.7,-4.1 -1,-5.2 -1.7,-1.2 -4.1,-0.7 -5.2,1 -4.2,6.2 -9.1,11.6 -14.5,16.9 -4.8,-5 -9.7,-10 -14.7,-14.9 -1.5,-1.5 -3.9,-1.5 -5.3,0 -1.5,1.5 -1.5,3.9 0,5.3 4.9,4.8 9.7,9.8 14.5,14.8 -1.1,1.1 -2.3,2.2 -3.5,3.2 -4.1,3.8 -8.4,7.8 -12.4,12 -1.4,1.5 -1.4,3.8 0,5.3 0,0 0,0 0,0 1.5,1.4 3.9,1.4 5.3,-0.1 3.9,-4 8.1,-7.9 12.1,-11.7 1.2,-1.1 2.3,-2.2 3.5,-3.3 4.9,5.3 9.8,10.6 14.6,15.9 0.1,0.1 0.1,0.1 0.2,0.2 1.4,1.4 3.7,1.5 5.2,0.2 1.7,-1.2 1.8,-3.6 0.4,-5.2 z M 327.6,248.6 327.2,246 c -1.5,-11.1 -2.2,-23.2 -2.3,-37 0,-5.5 0,-11.5 0.2,-18.5 0,-0.7 0,-1.5 0,-2.3 0,-5 0,-11.2 3.9,-13.5 2.2,-1.3 5.1,-1 8.5,0.9 5.7,3.1 13.2,8.7 17.5,14.9 5.5,7.8 7.3,16.9 5,25.7 -3.2,12.3 -15,31 -30,32.1 z m 4.5,-69.4 c -0.2,0 -0.3,0 -0.4,0.1 -0.1,0.1 -0.7,0.5 -1.1,2.7 -0.3,1.9 -0.3,4.2 -0.3,6.3 0,0.8 0,1.7 0,2.4 -0.2,6.9 -0.2,12.8 -0.2,18.3 0.1,12.5 0.7,23.5 2,33.7 11,-2.7 20.4,-18.1 23,-27.8 1.9,-7.2 0.4,-14.8 -4.2,-21.3 v 0 C 347,188.1 340,183 335,180.3 c -1.4,-0.8 -2.4,-1.1 -2.9,-1.1 z M 516.3,60.8 c -0.1,0 -0.2,0 -0.4,-0.1 -2.4,-0.7 -4,-0.9 -6.7,-0.7 -0.7,0 -1.3,-0.5 -1.4,-1.2 0,-0.7 0.5,-1.3 1.2,-1.4 3.1,-0.2 4.9,0 7.6,0.8 0.7,0.2 1.1,0.9 0.9,1.6 -0.2,0.6 -0.7,1 -1.2,1 z m -10.2,9.7 c -0.5,0 -1,-0.3 -1.2,-0.8 -0.8,-2.1 -1.2,-4.3 -1.3,-6.6 0,-0.7 0.5,-1.3 1.2,-1.3 0.7,0 1.3,0.5 1.3,1.2 0.1,2 0.5,3.9 1.1,5.8 0.2,0.7 -0.1,1.4 -0.8,1.6 0,0.1 -0.2,0.1 -0.3,0.1 z m -12,-6.1 c -0.4,0 -0.8,-0.2 -1,-0.5 -0.4,-0.6 -0.3,-1.4 0.2,-1.8 1.8,-1.4 3.7,-2.6 5.8,-3.6 0.6,-0.3 1.4,0 1.7,0.6 0.3,0.6 0,1.4 -0.6,1.7 -1.9,0.9 -3.7,2 -5.3,3.3 -0.2,0.2 -0.5,0.3 -0.8,0.3 z m 6.4,-9.1 c -0.5,0 -0.9,-0.3 -1.2,-0.7 -0.5,-1 -1.2,-1.9 -2.4,-3.4 -0.3,-0.4 -0.7,-0.9 -1.1,-1.4 -0.4,-0.6 -0.3,-1.4 0.2,-1.8 0.6,-0.4 1.4,-0.3 1.8,0.2 0.4,0.5 0.8,1 1.1,1.4 1.3,1.6 2.1,2.6 2.7,3.9 0.3,0.6 0,1.4 -0.6,1.7 -0.1,0.1 -0.3,0.1 -0.5,0.1 z m 6.2,-0.3 c -0.3,0 -0.5,-0.1 -0.8,-0.2 -0.6,-0.4 -0.7,-1.2 -0.3,-1.8 1.2,-1.7 2.3,-3.4 3.3,-5.2 0.3,-0.6 1.1,-0.9 1.7,-0.5 0.6,0.3 0.9,1.1 0.5,1.7 -1,1.9 -2.2,3.8 -3.5,5.6 -0.2,0.2 -0.5,0.4 -0.9,0.4 z m 522.6,327.8 c -0.1,0 -0.2,0 -0.4,-0.1 -2.4,-0.7 -4,-0.9 -6.7,-0.7 -0.7,0 -1.3,-0.5 -1.4,-1.2 0,-0.7 0.5,-1.3 1.2,-1.4 3.1,-0.2 4.9,0 7.6,0.8 0.7,0.2 1.1,0.9 0.9,1.6 -0.2,0.6 -0.7,1 -1.2,1 z m -10.2,9.7 c -0.5,0 -1,-0.3 -1.2,-0.8 -0.8,-2.1 -1.2,-4.3 -1.3,-6.6 0,-0.7 0.5,-1.3 1.2,-1.3 0.7,0 1.3,0.5 1.3,1.2 0.1,2 0.5,3.9 1.1,5.8 0.2,0.7 -0.1,1.4 -0.8,1.6 0,0.1 -0.2,0.1 -0.3,0.1 z m -12,-6.1 c -0.4,0 -0.8,-0.2 -1,-0.5 -0.4,-0.6 -0.3,-1.4 0.2,-1.8 1.8,-1.4 3.7,-2.6 5.8,-3.6 0.6,-0.3 1.4,0 1.7,0.6 0.3,0.6 0,1.4 -0.6,1.7 -1.9,0.9 -3.7,2 -5.3,3.3 -0.2,0.2 -0.5,0.3 -0.8,0.3 z m 6.4,-9.1 c -0.5,0 -0.9,-0.3 -1.2,-0.7 -0.5,-1 -1.2,-1.9 -2.4,-3.4 -0.3,-0.4 -0.7,-0.9 -1.1,-1.4 -0.4,-0.6 -0.3,-1.4 0.2,-1.8 0.6,-0.4 1.4,-0.3 1.8,0.2 0.4,0.5 0.8,1 1.1,1.4 1.3,1.6 2.1,2.6 2.7,3.9 0.3,0.6 0,1.4 -0.6,1.7 -0.1,0.1 -0.3,0.1 -0.5,0.1 z m 6.2,-0.3 c -0.3,0 -0.5,-0.1 -0.8,-0.2 -0.6,-0.4 -0.7,-1.2 -0.3,-1.8 1.2,-1.7 2.3,-3.4 3.3,-5.2 0.3,-0.6 1.1,-0.9 1.7,-0.5 0.6,0.3 0.9,1.1 0.5,1.7 -1,1.9 -2.2,3.8 -3.5,5.6 -0.2,0.2 -0.5,0.4 -0.9,0.4 z m 310,196.4 c -1.4,0 -2.9,-0.2 -4.5,-0.7 -8.4,-2.7 -16.6,-12.7 -18.7,-20 -0.4,-1.4 -0.7,-2.9 -0.9,-4.4 -8.1,3.3 -15.5,10.6 -15.4,21 0,1.5 -1.2,2.7 -2.7,2.8 0,0 0,0 0,0 -1.5,0 -2.7,-1.2 -2.7,-2.7 -0.1,-6.7 2.4,-12.9 7,-18 3.6,-4 8.4,-7.1 13.7,-8.8 0.5,-6.5 3.1,-12.9 7.4,-17.4 7,-7.4 18.2,-8.9 27.3,-10.1 l 0.7,-0.1 c 1.5,-0.2 2.9,0.9 3.1,2.3 0.2,1.5 -0.9,2.9 -2.3,3.1 l -0.7,0.1 c -8.6,1.2 -18.4,2.5 -24,8.4 -3,3.2 -5,7.7 -5.7,12.4 7.9,-1 17.7,1.3 24.3,5.7 4.3,2.9 7.1,7.8 7.2,12.7 0.2,4.3 -1.7,8.3 -5.2,11.1 -2.4,1.6 -5,2.6 -7.9,2.6 z M 1311,546.7 c 0.1,1.5 0.4,3 0.8,4.4 1.7,5.8 8.7,14.2 15.1,16.3 2.8,0.9 5.1,0.5 7.2,-1.1 2.7,-2.1 3.2,-4.8 3.1,-6.6 -0.1,-3.2 -2,-6.4 -4.8,-8.3 -5.7,-3.9 -14.7,-5.8 -21.4,-4.7 z"
       id="path16"
       inkscape:connector-curvature="0" />
  </g>
</svg>
